<?xml version="1.0" encoding="utf-8"?>
<!-- Generator: Adobe Illustrator 19.1.0, SVG Export Plug-In . SVG Version: 6.00 Build 0)  -->
<svg version="1.1" xmlns="http://www.w3.org/2000/svg" xmlns:xlink="http://www.w3.org/1999/xlink" x="0px" y="0px"
	 viewBox="0 0 1076 444" style="enable-background:new 0 0 1076 444;" xml:space="preserve">
<style type="text/css">
	.st0{fill:#36B24A;}
	.st1{fill:#FFFFFF;}
</style>
<g id="logo">
</g>
<g id="bg">
</g>
<g id="px">
</g>
<g id="Layer_4">
	<g>
		<path class="st0" d="M601.3,163.5c0-28.9,0-56.8,0-86.5c9.4,0.4,18.4,0,27.1,1.5c9.3,1.6,14.9,8.3,16.5,17.7
			c0.5,3.1,0.8,6.3,0.8,9.4c0,65.3,0,130.5,0,195.8c0,2-0.2,4.1-0.3,6.7c-10.6,0-20.9,0.3-31.1-0.1c-6.6-0.3-8.4-6-10-11.2
			c-6.2,3.8-11.7,8-17.9,10.8c-33.6,14.7-71-1.2-82.2-36c-9.3-29.1-8.5-58.5,3.8-86.9c16.7-38.5,66.5-44.8,90.7-22.6
			C599.1,162.4,599.7,162.6,601.3,163.5z M601.3,231c0-11.1,0.2-22.3-0.1-33.4c-0.1-2.4-1.1-5.5-2.9-6.9
			c-16.8-13.6-43.2-9.4-50.3,13.5c-5.5,17.6-5.2,35.3-0.9,52.9c4.9,19.9,22.4,29.2,41.9,22.9c8.8-2.8,12.2-7.4,12.3-16.7
			C601.4,252.4,601.3,241.7,601.3,231z"/>
		<path class="st0" d="M907.5,307.7c-21.7,9.6-38.4,5.2-47.1-12.3c-11.9,10.6-25.7,16.5-41.6,17c-19.6,0.7-37.6-3.2-48.8-21.4
			c-15.9-26-5.1-57.9,23.7-71.2c13-6,26.9-8.1,41-9.3c7.5-0.7,15-1.1,22.5-1.6c3.2-16.1-3.7-25.6-19.8-27.7
			c-15.4-2-29.6,1.5-43.2,8.7c-3.5,1.9-7.1,3.6-11.9,6c-3-6.4-6.4-12.3-8.7-18.7c-2.4-6.8,1.8-11.9,7.3-14.4
			c9.3-4.2,18.9-8.2,28.8-10.6c16.7-4,33.9-4.1,50.8-0.7c24.8,5,38.4,21.2,39.1,47.1c0.7,23.1,0.2,46.3,0.5,69.5
			C900.5,281.6,901,295.1,907.5,307.7z M858.4,230.9c-13.2,2.8-25.4,4.8-37.1,8.1c-4.3,1.2-8.4,4.9-11.5,8.4
			c-10.1,11.6-3.9,32.2,10.5,35c10.9,2,21.5,0.6,30.6-6.2c3.1-2.4,6.9-6.2,7.2-9.7C859,255.5,858.4,244.4,858.4,230.9z"/>
		<path class="st0" d="M376.3,238.7c1.7,35.2,26.5,47.9,57.6,39.4c4.6-1.3,9-3.6,13.1-6c3.9-2.4,7.3-5.6,12-9.2
			c3.7,6.9,7.8,13.2,10.6,20.1c2.6,6.5,0.2,12.3-5.3,16.8c-9,7.2-19.5,10.7-30.6,12.5c-19.4,3.2-38.7,2.2-57.2-4.6
			c-19.1-7-31.9-20.9-38.9-39.7c-7.9-21.2-9-43.2-3.4-65.1c8.6-33.9,37.8-54.4,74-53.4c25.5,0.8,45.9,10,57.4,34
			c7.8,16.3,7.7,33.8,6.7,51.4c-0.3,4.5-3.5,3.9-6.4,3.9c-27.6,0-55.2,0-82.8,0C380.9,238.7,378.6,238.7,376.3,238.7z M432.4,214.1
			c-0.7-12.2-1.3-24.1-12.7-31.4c-8.9-5.7-23.9-4.6-32.3,1.8c-8.2,6.2-13.4,20.1-11,29.6C394.8,214.1,413.2,214.1,432.4,214.1z"/>
		<path class="st0" d="M731.5,312.2c-10.2-0.8-19.6-0.7-28.7-2.6c-10.6-2.3-15.1-8.9-15.3-20.3c-0.3-15.6-0.2-31.2-0.2-46.7
			c0-27.2,0-54.3,0-81.5c0-2.3,0-4.5,0-8.4c9.4,0.5,18.2,0.1,26.8,1.5c10.3,1.7,17.2,9.8,17.3,21.2
			C731.8,220.2,731.5,265,731.5,312.2z"/>
		<path class="st0" d="M296.8,190.7c-8.7-28.7-29.9-42.3-59.7-41.1c-15.8,0.6-28.6,7.3-39.7,17.9c-8.5-13.9-24.9-18.7-42.6-12.8
			c0,74.9,0,112.2,0,187.1c0,0,0,0,0,0c0,4.9,0.1,9.8,0.2,14.7c0.2,11.3,4.8,18,15.3,20.3c9,1.9,18.5,1.8,28.7,2.6
			c0-27.2,0.1-53.6,0.1-79.7c0.7,0.1,1,0.1,1.2,0.3c32.2,25.6,77.6,14.3,93.3-23.8C305,248.2,305.4,219.3,296.8,190.7z M252.1,255.9
			c-6.2,20.5-25.6,28.3-44.7,18.6c-4-2-7-4.3-8.4-7.8c0-8-0.1-16.1-0.1-24.1c0-1.1-0.1-2.3-0.2-3.3c-0.1-2.3-0.1-4.7-0.1-7
			c0-10.1-0.1-20.2,0-30.3c0.1-9.6,4.5-15.4,13.7-17.9c20.3-5.6,36.6,3.4,41.2,23.8C257.1,223.8,256.8,240.1,252.1,255.9z"/>
		<path class="st0" d="M708.1,124.9c-14.1,0-24.3-9.9-24.1-23.5c0.2-13.2,10.5-23.4,23.8-23.5c13.5-0.1,24,10.2,24,23.8
			C731.7,115.1,721.8,124.9,708.1,124.9z"/>
	</g>
</g>
<g id="box">
</g>
<g id="p">
</g>
</svg>
