<?xml version="1.0" encoding="utf-8"?>
<!-- Generator: Adobe Illustrator 19.0.1, SVG Export Plug-In . SVG Version: 6.00 Build 0)  -->
<svg version="1.1" id="Layer_1" xmlns="http://www.w3.org/2000/svg" xmlns:xlink="http://www.w3.org/1999/xlink" x="0px" y="0px"
	 viewBox="0 0 181 78" style="enable-background:new 0 0 181 78;" xml:space="preserve">
<style type="text/css">
	.st0{fill:#FFFFFF;}
	.st1{font-family:'Arial-BoldMT';}
	.st2{font-size:11.3468px;}
	.st3{letter-spacing:1;}
</style>
<g>
	<path class="st0" d="M139.2,52.6c0-0.1,0.1-0.2,0.1-0.3c4.7-12.4,9.4-24.9,14.1-37.3c0.1-0.2,0.2-0.3,0.4-0.3
		c2.8,0,5.6-0.1,8.4-0.1c0.2,0,0.3,0.1,0.4,0.3c4.7,12.3,9.5,24.6,14.2,37c0.1,0.3,0.2,0.5,0.3,0.8c-3.2,0-6.3,0.1-9.4,0.1
		c-0.4-1-0.7-1.9-1.1-2.9c-0.7-2-1.5-4.1-2.2-6.1c-0.1-0.2-0.2-0.3-0.4-0.3c-4,0-8,0.1-11.9,0.1c-0.2,0-0.3,0.1-0.4,0.3
		c-1,2.9-2,5.7-3,8.6c-0.1,0.2-0.2,0.3-0.4,0.3c-2.9,0-5.8-0.1-8.7-0.1C139.5,52.6,139.4,52.6,139.2,52.6z M157.9,26
		c-1.2,3.1-2.3,6.2-3.5,9.2c2.3,0,4.6,0,6.9,0C160.1,32.2,159,29.2,157.9,26z"/>
	<path class="st0" d="M133.8,37.5c2.2,1.3,4.4,2.5,6.6,3.8c-3,6.9-10.3,11.9-18.8,11.2c-9-0.7-16.2-7.7-17.3-16.6
		c-1.1-9.4,4.5-17.5,12.7-20.3c8.3-2.8,17.3,0.4,22,7.6c-2,1.4-4,2.7-6.1,4.1c-1.8-2.8-4.3-4.6-7.6-5.2c-2.4-0.5-4.8-0.2-7,0.9
		c-4.4,2.1-7,6.9-6.4,11.7c0.6,4.8,4.3,8.8,9,9.8c2.7,0.5,5.3,0.2,7.8-1.1C131.1,42.1,132.8,40.1,133.8,37.5z"/>
	<path class="st0" d="M45.7,51.9c-10.4,0-18.9-8.4-18.9-18.8c0-10.4,8.4-18.9,18.8-18.9c10.4,0,18.9,8.4,18.9,18.8
		C64.5,43.5,56.1,51.9,45.7,51.9z M59.3,33.2c0-7.5-6.1-13.6-13.6-13.6c-7.4,0-13.6,6.1-13.6,13.5c0,7.5,6.1,13.6,13.5,13.6
		C53.2,46.8,59.3,40.7,59.3,33.2z"/>
	<path class="st0" d="M75.6,37.9c-0.1,4.9-0.1,9.8-0.2,14.8c-2.5,0-5.1,0-7.6,0c0-12.7,0-25.3,0-38.1c0.1,0,0.2,0,0.3,0
		c4.2,0,8.3,0,12.5,0c1,0,2,0.3,2.9,0.6c3.8,1.2,6.3,3.8,7.3,7.6c0.6,2.4,0.6,4.9-0.1,7.3c-0.4,1.3-1.2,2.5-2.1,3.6
		c-1.1,1.5-2.7,2.4-4.5,3.1c-1.4,0.6-2.8,0.8-4.3,0.8c-1.4,0.1-2.8,0.1-4.1,0.1C75.8,37.9,75.8,37.9,75.6,37.9z M75.6,31.7
		c0.1,0,0.2,0,0.3,0c0.7,0,1.4-0.1,2.1-0.1c1.4,0,2.8-0.2,4.2-0.9c1.3-0.6,2.3-1.6,2.8-2.9c0.6-1.6,0.3-3.8-1.4-5.3
		c-1.4-1.2-3.1-1.7-4.8-1.8c-0.9-0.1-1.9,0-2.8,0c-0.1,0-0.2,0-0.3,0C75.6,24.5,75.6,28.1,75.6,31.7z"/>
	<path class="st0" d="M12.6,22c-2.4,0-4.7,0-7.1,0c0-2.4,0-4.9,0-7.4c7.2,0,14.4,0,21.5,0c0,2.4,0,4.8,0,7.2c-2.4,0-4.7,0-7.1,0
		c0,10.2,0,20.5,0,30.7c-2.5,0-4.9,0-7.4,0C12.6,42.4,12.6,32.2,12.6,22z"/>
	<path class="st0" d="M94.3,14.7c2.2,0,4.5,0,6.7,0c0,12.7,0,25.3,0,38c-2.2,0-4.4,0-6.7,0C94.3,40,94.3,27.4,94.3,14.7z"/>
	<path class="st0" d="M58,33.2c0,6.7-5.5,12.2-12.2,12.2c-6.7,0-12.2-5.5-12.2-12.3c0-6.7,5.5-12.2,12.2-12.1
		C52.5,21,58,26.5,58,33.2z M56.2,33c0-0.4-0.1-1-0.2-1.6c-1.1-6.1-7.4-10-13.3-8c-4,1.3-6.4,4.1-7.2,8.3c0,0.2,0,0.3,0.2,0.4
		c5.4,3,10.8,6.1,16.2,9.1c0.3,0.2,0.4,0.1,0.7-0.1C54.9,39,56.1,36.4,56.2,33z"/>
</g>
<text transform="matrix(1 0 0 1 5.5513 67.1318)" class="st0 st1 st2 st3">TOPICA EDTECH GROUP</text>
</svg>
